<svg width="40" height="40" viewBox="0 0 40 40" fill="none" xmlns="http://www.w3.org/2000/svg">
<path d="M35.625 19.9993C35.625 20.4966 35.4274 20.9735 35.0758 21.3252C34.7242 21.6768 34.2472 21.8743 33.75 21.8743H10.7812L18.8281 29.9212C19.0029 30.0954 19.1416 30.3024 19.2362 30.5303C19.3309 30.7582 19.3796 31.0026 19.3796 31.2493C19.3796 31.4961 19.3309 31.7405 19.2362 31.9684C19.1416 32.1963 19.0029 32.4033 18.8281 32.5775C18.4743 32.9267 17.9971 33.1225 17.5 33.1225C17.0028 33.1225 16.5257 32.9267 16.1718 32.5775L4.92184 21.3275C4.74704 21.1533 4.60835 20.9463 4.51371 20.7184C4.41908 20.4905 4.37036 20.2461 4.37036 19.9993C4.37036 19.7526 4.41908 19.5082 4.51371 19.2803C4.60835 19.0524 4.74704 18.8454 4.92184 18.6712L16.1718 7.42122C16.5241 7.06898 17.0018 6.87109 17.5 6.87109C17.7466 6.87109 17.9909 6.91968 18.2187 7.01407C18.4466 7.10846 18.6537 7.24681 18.8281 7.42122C19.0025 7.59563 19.1409 7.80269 19.2352 8.03057C19.3296 8.25845 19.3782 8.50269 19.3782 8.74935C19.3782 8.996 19.3296 9.24024 19.2352 9.46812C19.1409 9.696 19.0025 9.90306 18.8281 10.0775L10.7812 18.1243H33.75C34.2472 18.1243 34.7242 18.3219 35.0758 18.6735C35.4274 19.0252 35.625 19.5021 35.625 19.9993Z" fill="#808080"/>
</svg>
