<svg width="15" height="16" viewBox="0 0 15 16" fill="none" xmlns="http://www.w3.org/2000/svg">
<path d="M13.3333 0.5H1.66667C0.75 0.5 0 1.25 0 2.16667V13.8333C0 14.75 0.75 15.5 1.66667 15.5H13.3333C14.25 15.5 15 14.75 15 13.8333V2.16667C15 1.25 14.25 0.5 13.3333 0.5ZM8.33333 3.91667L9.25 3L10.4167 4.16667L11.5833 3L12.5 3.91667L11.3333 5.08333L12.5 6.25L11.5833 7.16667L10.4167 6L9.25 7.16667L8.33333 6.25L9.5 5.08333L8.33333 3.91667ZM2.66667 4.41667H6.83333V5.66667H2.66667V4.41667ZM7.08333 11.3333H5.41667V13H4.16667V11.3333H2.5V10.0833H4.16667V8.41667H5.41667V10.0833H7.08333V11.3333ZM12.5 12.3333H8.33333V11.0833H12.5V12.3333ZM12.5 10.3333H8.33333V9.08333H12.5V10.3333Z" fill="#E6E6FF"/>
</svg>
