<svg viewBox="0 0 107 50" fill="none" xmlns="http://www.w3.org/2000/svg">
<path d="M13.6766 14.8468C11.0469 12.875 7.27972 14.6047 7.06097 17.8828L6.9516 19.5312H5.85941C5.54861 19.5312 5.25054 19.6547 5.03077 19.8745C4.811 20.0942 4.68754 20.3923 4.68754 20.7031C4.68754 21.0139 4.811 21.312 5.03077 21.5317C5.25054 21.7515 5.54861 21.875 5.85941 21.875H6.79379L6.13754 31.7078C6.11745 32.01 6.02733 32.3035 5.8743 32.5649C5.72127 32.8263 5.50953 33.0486 5.25582 33.2141C5.00211 33.3796 4.71337 33.4838 4.41244 33.5185C4.11151 33.5532 3.80664 33.5175 3.52191 33.414L3.13597 33.2734C2.99132 33.2208 2.83771 33.1972 2.68392 33.2039C2.53013 33.2106 2.37917 33.2476 2.23967 33.3127C2.10016 33.3777 1.97484 33.4696 1.87086 33.5831C1.76687 33.6967 1.68626 33.8295 1.63363 33.9742C1.581 34.1188 1.55738 34.2725 1.56411 34.4262C1.57084 34.58 1.6078 34.731 1.67288 34.8705C1.73795 35.01 1.82986 35.1353 1.94337 35.2393C2.05688 35.3433 2.18975 35.4239 2.33441 35.4765L2.72191 35.6172C3.34827 35.8447 4.01898 35.9235 4.68103 35.8472C5.34307 35.7709 5.97829 35.5417 6.53649 35.1777C7.09469 34.8136 7.56056 34.3247 7.89728 33.7496C8.23399 33.1745 8.43233 32.529 8.4766 31.864L9.14379 21.875H11.3282C11.639 21.875 11.937 21.7515 12.1568 21.5317C12.3766 21.312 12.5 21.0139 12.5 20.7031C12.5 20.3923 12.3766 20.0942 12.1568 19.8745C11.937 19.6547 11.639 19.5312 11.3282 19.5312H9.30004L9.39847 18.039C9.42003 17.7161 9.52839 17.405 9.71211 17.1386C9.89583 16.8722 10.1481 16.6603 10.4423 16.5254C10.7364 16.3905 11.0616 16.3375 11.3833 16.3721C11.7051 16.4067 12.0116 16.5275 12.2703 16.7218L12.5782 16.9531C12.7013 17.0454 12.8414 17.1126 12.9904 17.1508C13.1395 17.189 13.2947 17.1975 13.447 17.1757C13.5994 17.1539 13.7459 17.1024 13.8783 17.024C14.0108 16.9456 14.1265 16.8418 14.2188 16.7187C14.3111 16.5956 14.3783 16.4555 14.4165 16.3064C14.4547 16.1574 14.4631 16.0022 14.4414 15.8499C14.4196 15.6975 14.3681 15.551 14.2897 15.4185C14.2112 15.2861 14.1075 15.1704 13.9844 15.0781L13.6766 14.8468Z" fill="#BF40BF"/>
<path d="M15.0563 24.4766C14.8707 24.1752 14.6193 23.9198 14.3209 23.7295C14.0226 23.5392 13.6849 23.4189 13.3334 23.3777C12.9819 23.3366 12.6257 23.3755 12.2914 23.4917C11.9571 23.6078 11.6534 23.7982 11.4032 24.0484L10.8907 24.5609C10.6837 24.7831 10.571 25.0769 10.5764 25.3805C10.5817 25.6841 10.7047 25.9738 10.9194 26.1885C11.1341 26.4032 11.4238 26.5262 11.7274 26.5315C12.031 26.5369 12.3248 26.4242 12.5469 26.2172L13.061 25.7047L14.9235 28.7313L11.2813 32.375C11.0743 32.5972 10.9616 32.891 10.967 33.1946C10.9723 33.4982 11.0953 33.7878 11.31 34.0025C11.5247 34.2173 11.8144 34.3402 12.118 34.3456C12.4216 34.351 12.7154 34.2383 12.9376 34.0313L16.186 30.7844L17.7563 33.3359C17.9419 33.6373 18.1933 33.8927 18.4917 34.083C18.7901 34.2733 19.1277 34.3936 19.4792 34.4348C19.8307 34.476 20.187 34.437 20.5213 34.3209C20.8556 34.2047 21.1592 34.0143 21.4094 33.7641L21.9219 33.2516C22.1289 33.0294 22.2416 32.7356 22.2363 32.432C22.2309 32.1284 22.1079 31.8387 21.8932 31.624C21.6785 31.4093 21.3889 31.2863 21.0853 31.281C20.7817 31.2756 20.4878 31.3883 20.2657 31.5953L19.7516 32.1078L17.8891 29.0813L21.5313 25.4375C21.7383 25.2154 21.851 24.9215 21.8457 24.6179C21.8403 24.3143 21.7173 24.0247 21.5026 23.81C21.2879 23.5953 20.9982 23.4723 20.6946 23.4669C20.391 23.4616 20.0972 23.5743 19.8751 23.7813L16.6251 27.0266L15.0563 24.4766Z" fill="#BF40BF"/>
<path d="M37.84 12.52C35.8133 13.1867 34.24 14.2933 33.12 15.84C32.0267 17.36 31.48 19.2533 31.48 21.52C31.48 22.5333 31.5733 23.2267 31.76 23.6C31.9467 23.9733 32.04 24.2 32.04 24.28C29.1867 24.28 27.76 23.0667 27.76 20.64C27.76 18.9867 28.3867 17.3333 29.64 15.68C30.92 14 32.5467 12.64 34.52 11.6C36.52 10.5333 38.5067 10 40.48 10C41.4667 10 42.48 10.1867 43.52 10.56L42.6 31.64L51.4 10.56H57.16L52.96 40H47.2L49.76 22.04L42.24 40H36.76L37.56 21.96L30.88 40H27.68L37.84 12.52ZM61.2844 40.24C59.7644 40.24 58.4977 39.72 57.4844 38.68C56.471 37.64 55.9644 36.0133 55.9644 33.8C55.9644 31.8267 56.351 29.76 57.1244 27.6C57.9244 25.4133 59.0977 23.5733 60.6444 22.08C62.2177 20.56 64.0844 19.8 66.2444 19.8C67.3377 19.8 68.151 19.9867 68.6844 20.36C69.2177 20.7333 69.4844 21.2267 69.4844 21.84V22.12L69.9244 20H75.6844L72.8044 33.6C72.6977 34 72.6444 34.4267 72.6444 34.88C72.6444 36.0267 73.191 36.6 74.2844 36.6C75.031 36.6 75.671 36.2533 76.2044 35.56C76.7644 34.8667 77.2044 33.96 77.5244 32.84H79.2044C78.2177 35.72 76.991 37.68 75.5244 38.72C74.0844 39.7333 72.631 40.24 71.1644 40.24C70.0444 40.24 69.1377 39.9333 68.4444 39.32C67.7777 38.68 67.3777 37.76 67.2444 36.56C66.471 37.6533 65.6044 38.5467 64.6444 39.24C63.711 39.9067 62.591 40.24 61.2844 40.24ZM63.8844 36.36C64.551 36.36 65.2044 36.0533 65.8444 35.44C66.511 34.8 66.9644 33.9333 67.2044 32.84L69.1244 23.8C69.1244 23.4533 68.991 23.12 68.7244 22.8C68.4577 22.4533 68.0444 22.28 67.4844 22.28C66.4177 22.28 65.4577 22.9067 64.6044 24.16C63.751 25.3867 63.0844 26.88 62.6044 28.64C62.1244 30.3733 61.8844 31.9067 61.8844 33.24C61.8844 34.5733 62.071 35.4267 62.4444 35.8C62.8444 36.1733 63.3244 36.36 63.8844 36.36ZM81.4991 40.24C80.2191 40.24 79.1791 39.84 78.3791 39.04C77.6057 38.24 77.2191 37.04 77.2191 35.44C77.2191 34.7733 77.3257 33.9067 77.5391 32.84L79.9391 21.6H78.6191L78.9391 20H80.2591L81.4591 14.48L87.3791 13.68L86.0191 20H88.4191L88.0991 21.6H85.6991L83.1391 33.6C83.0324 34 82.9791 34.4267 82.9791 34.88C82.9791 35.4133 83.0991 35.8 83.3391 36.04C83.6057 36.2533 84.0324 36.36 84.6191 36.36C85.3924 36.36 86.1124 36.04 86.7791 35.4C87.4457 34.7333 87.9257 33.88 88.2191 32.84H89.8991C88.9124 35.72 87.6457 37.68 86.0991 38.72C84.5524 39.7333 83.0191 40.24 81.4991 40.24ZM101.923 40.24C100.51 40.24 99.4831 39.8133 98.8431 38.96C98.2031 38.1067 97.8831 37.0267 97.8831 35.72C97.8831 35.16 97.9498 34.5333 98.0831 33.84C98.2165 33.12 98.3498 32.4267 98.4831 31.76C98.6431 31.0933 98.7498 30.6667 98.8031 30.48C99.0165 29.5467 99.2165 28.6267 99.4031 27.72C99.5898 26.8133 99.6831 26.08 99.6831 25.52C99.6831 24.16 99.2031 23.48 98.2431 23.48C97.6031 23.48 97.0165 23.7733 96.4831 24.36C95.9765 24.9467 95.5631 25.72 95.2431 26.68L92.4031 40H86.6431L92.4431 12.8L98.3631 12L96.2031 22.04C97.5365 20.5733 99.0965 19.84 100.883 19.84C102.243 19.84 103.323 20.2133 104.123 20.96C104.923 21.7067 105.323 22.84 105.323 24.36C105.323 25.1333 105.23 26 105.043 26.96C104.856 27.8933 104.59 29.04 104.243 30.4C104.03 31.2267 103.83 32.04 103.643 32.84C103.483 33.6133 103.403 34.2267 103.403 34.68C103.403 35.2133 103.523 35.6267 103.763 35.92C104.003 36.2133 104.416 36.36 105.003 36.36C105.643 36.36 106.083 36.28 106.323 36.12C106.163 37.48 105.67 38.5067 104.843 39.2C104.043 39.8933 103.07 40.24 101.923 40.24Z" fill="#1A1A1A"/>
</svg>
