<svg width="30" height="23" viewBox="0 0 30 23" fill="none" xmlns="http://www.w3.org/2000/svg">
<path d="M17.9133 22.3812C17.5281 21.9686 17.3432 21.4701 17.3586 20.8856C17.3753 20.3012 17.5762 19.8027 17.9615 19.3901L23.4029 13.5628H1.92616C1.38042 13.5628 0.922633 13.3648 0.552809 12.9687C0.18427 12.574 0 12.0845 0 11.5C0 10.9155 0.18427 10.4253 0.552809 10.0292C0.922633 9.63456 1.38042 9.43722 1.92616 9.43722H23.4029L17.9133 3.55829C17.5281 3.14574 17.3355 2.65548 17.3355 2.08753C17.3355 1.52096 17.5281 1.03139 17.9133 0.618833C18.2986 0.206277 18.7563 0 19.2867 0C19.8157 0 20.2729 0.206277 20.6581 0.618833L29.4703 10.0561C29.6629 10.2623 29.7997 10.4858 29.8806 10.7265C29.9602 10.9671 30 11.225 30 11.5C30 11.775 29.9602 12.0329 29.8806 12.2735C29.7997 12.5142 29.6629 12.7377 29.4703 12.9439L20.61 22.4327C20.2568 22.8109 19.8157 23 19.2867 23C18.7563 23 18.2986 22.7937 17.9133 22.3812Z" fill="#808080"/>
</svg>
