<svg width="30" height="23" viewBox="0 0 30 23" fill="none" xmlns="http://www.w3.org/2000/svg">
<path d="M12.0867 0.618837C12.4719 1.03139 12.6568 1.5299 12.6414 2.11435C12.6247 2.69881 12.4238 3.19731 12.0385 3.60987L6.59711 9.43722L28.0738 9.43722C28.6196 9.43722 29.0774 9.63525 29.4472 10.0313C29.8157 10.426 30 10.9155 30 11.5C30 12.0845 29.8157 12.5747 29.4472 12.9708C29.0774 13.3654 28.6196 13.5628 28.0738 13.5628L6.59711 13.5628L12.0867 19.4417C12.4719 19.8543 12.6645 20.3445 12.6645 20.9125C12.6645 21.479 12.4719 21.9686 12.0867 22.3812C11.7014 22.7937 11.2437 23 10.7133 23C10.1843 23 9.72713 22.7937 9.34189 22.3812L0.529697 12.9439C0.337081 12.7377 0.200321 12.5142 0.119422 12.2735C0.0398072 12.0329 -6.82765e-07 11.775 -6.82765e-07 11.5C-6.82765e-07 11.225 0.0398072 10.9671 0.119422 10.7265C0.200321 10.4858 0.337081 10.2623 0.529697 10.0561L9.39005 0.567268C9.74318 0.189092 10.1843 2.38258e-07 10.7133 2.38258e-07C11.2437 2.38258e-07 11.7014 0.206281 12.0867 0.618837Z" fill="#808080"/>
</svg>
